<svg width="760" height="560" viewBox="0 0 760 560" fill="none" xmlns="http://www.w3.org/2000/svg">
  <rect width="760" height="560" rx="36" fill="#FCF5EC"/>
  <circle cx="112" cy="94" r="74" fill="#E36A2F" fill-opacity="0.12"/>
  <circle cx="638" cy="114" r="92" fill="#0F7F78" fill-opacity="0.12"/>
  <rect x="60" y="60" width="640" height="440" rx="30" fill="#FFFDF8" stroke="#E8DED1"/>
  <rect x="94" y="96" width="572" height="54" rx="18" fill="#F7EDE0"/>
  <rect x="118" y="117" width="138" height="12" rx="6" fill="#140E05" fill-opacity="0.75"/>
  <rect x="94" y="180" width="170" height="124" rx="22" fill="#0E1E33"/>
  <rect x="294" y="180" width="170" height="124" rx="22" fill="#0F7F78"/>
  <rect x="494" y="180" width="170" height="124" rx="22" fill="#E36A2F"/>
  <rect x="94" y="334" width="170" height="124" rx="22" fill="#F7EDE0" stroke="#E8DED1"/>
  <rect x="294" y="334" width="170" height="124" rx="22" fill="#F7EDE0" stroke="#E8DED1"/>
  <rect x="494" y="334" width="170" height="124" rx="22" fill="#F7EDE0" stroke="#E8DED1"/>
  <rect x="114" y="204" width="88" height="10" rx="5" fill="#FFFFFF" fill-opacity="0.86"/>
  <rect x="314" y="204" width="88" height="10" rx="5" fill="#FFFFFF" fill-opacity="0.86"/>
  <rect x="514" y="204" width="88" height="10" rx="5" fill="#FFFFFF" fill-opacity="0.86"/>
  <rect x="114" y="352" width="104" height="10" rx="5" fill="#140E05" fill-opacity="0.7"/>
  <rect x="314" y="352" width="104" height="10" rx="5" fill="#140E05" fill-opacity="0.7"/>
  <rect x="514" y="352" width="104" height="10" rx="5" fill="#140E05" fill-opacity="0.7"/>
</svg>
