<svg width="760" height="560" viewBox="0 0 760 560" fill="none" xmlns="http://www.w3.org/2000/svg">
  <rect width="760" height="560" rx="36" fill="#0E1E33"/>
  <circle cx="116" cy="110" r="82" fill="#44B7AF" fill-opacity="0.18"/>
  <circle cx="624" cy="110" r="92" fill="#E36A2F" fill-opacity="0.18"/>
  <rect x="60" y="62" width="640" height="436" rx="30" fill="#10253C" stroke="rgba(255,255,255,0.08)"/>
  <rect x="108" y="118" width="220" height="264" rx="26" fill="#FDF8F2"/>
  <rect x="140" y="154" width="116" height="16" rx="8" fill="#10253C"/>
  <rect x="140" y="194" width="156" height="12" rx="6" fill="#10253C" fill-opacity="0.18"/>
  <rect x="140" y="224" width="128" height="12" rx="6" fill="#10253C" fill-opacity="0.14"/>
  <rect x="140" y="266" width="154" height="42" rx="18" fill="#E36A2F"/>
  <g>
    <rect x="382" y="126" width="268" height="132" rx="24" fill="#122B45"/>
    <circle cx="432" cy="178" r="20" fill="#44B7AF"/>
    <rect x="470" y="160" width="116" height="14" rx="7" fill="#FDF8F2" fill-opacity="0.88"/>
    <rect x="470" y="190" width="82" height="12" rx="6" fill="#FDF8F2" fill-opacity="0.2"/>
  </g>
  <g>
    <rect x="382" y="286" width="268" height="150" rx="24" fill="#122B45"/>
    <path d="M428 384L470 346L514 362L570 320L610 346" stroke="#F6C46E" stroke-width="10" stroke-linecap="round" stroke-linejoin="round"/>
    <circle cx="428" cy="384" r="10" fill="#F6C46E"/>
    <circle cx="470" cy="346" r="10" fill="#44B7AF"/>
    <circle cx="514" cy="362" r="10" fill="#E36A2F"/>
    <circle cx="570" cy="320" r="10" fill="#F6C46E"/>
    <circle cx="610" cy="346" r="10" fill="#44B7AF"/>
  </g>
</svg>
